<svg width="373" height="198" viewBox="0 0 373 198" fill="none" xmlns="http://www.w3.org/2000/svg">
<g clip-path="url(#clip0_517_1845)">
<path d="M219.86 124.07C220.746 122.76 221.264 121.18 221.264 119.479C221.264 115.52 218.461 112.217 214.731 111.444C214.423 89.6077 196.629 71.9999 174.719 71.9999C152.809 71.9999 135.015 89.6077 134.707 111.445C130.977 112.217 128.174 115.52 128.174 119.479C128.174 121.18 128.692 122.76 129.578 124.07C126.434 127.029 124.468 131.226 124.468 135.884C124.468 143.765 130.09 150.332 137.541 151.799C136.822 153.282 136.418 154.947 136.418 156.707C136.418 162.927 141.46 167.969 147.68 167.969H201.758C207.978 167.969 213.02 162.927 213.02 156.707C213.02 154.947 212.616 153.282 211.897 151.799C219.349 150.332 224.97 143.766 224.97 135.884C224.97 131.226 223.004 127.029 219.86 124.07Z" fill="#596C76"/>
<path d="M178.156 167.969H147.68C144.57 167.969 141.753 166.709 139.715 164.671C137.677 162.633 136.416 159.819 136.416 156.708C136.416 154.949 136.822 153.283 137.542 151.8C133.815 151.067 130.547 149.057 128.21 146.248C125.872 143.436 124.468 139.826 124.468 135.884C124.468 131.227 126.433 127.028 129.579 124.069C129.135 123.415 128.783 122.693 128.544 121.922C128.303 121.149 128.174 120.33 128.174 119.478C128.174 115.521 130.976 112.217 134.707 111.444C134.862 100.525 139.385 90.6654 146.613 83.5339C153.838 76.4023 163.764 72.0012 174.718 72.0012C178.283 72.0012 181.738 72.4678 185.026 73.3397C178.207 75.1549 172.102 78.722 167.227 83.5339C160.001 90.6654 155.476 100.525 155.321 111.444C155.321 111.444 156.503 119.763 155.465 120.665L178.156 167.969Z" fill="#465A61"/>
<path d="M199.053 184.331V196.313C199.053 197.246 198.3 197.999 197.367 197.999H152.07C151.142 197.999 150.384 197.246 150.384 196.313V184.331C150.384 179.086 152.271 174.284 155.399 170.563C157.039 168.613 159.022 166.96 161.253 165.695C164.363 163.928 167.963 162.919 171.797 162.919H177.64C181.479 162.919 185.076 163.928 188.189 165.693C190.418 166.958 192.4 168.61 194.038 170.563C197.169 174.284 199.053 179.086 199.053 184.331Z" fill="#97DA7B"/>
<path d="M174.719 188.886C173.669 188.886 172.817 188.034 172.817 186.984V172.249C172.817 171.199 173.669 170.347 174.719 170.347C175.769 170.347 176.62 171.199 176.62 172.249V186.984C176.62 188.034 175.769 188.886 174.719 188.886Z" fill="#80D261"/>
<path d="M181.378 163.245C171.334 165.011 163.701 173.782 163.701 184.332V197.999H152.072C151.141 197.999 150.386 197.244 150.386 196.312V184.332C150.386 172.506 159.972 162.92 171.797 162.92H177.642C178.916 162.92 180.165 163.032 181.378 163.245Z" fill="#80D261"/>
<path d="M188.189 165.693C188.143 173.092 182.128 179.078 174.719 179.078C171.197 179.078 167.994 177.725 165.594 175.513C162.943 173.073 161.276 169.58 161.251 165.696C163.439 164.452 165.868 163.586 168.45 163.181V152.839H181.094V163.197C183.638 163.607 186.031 164.468 188.189 165.693Z" fill="#FFDFCF"/>
<path d="M200.573 115.766C202.588 114.72 204.989 114.419 207.338 115.097C212.197 116.501 214.999 121.582 213.595 126.444C212.188 131.303 206.265 137.025 201.403 135.618C201.039 135.512 200.689 135.369 200.355 135.189H149.084C148.75 135.369 148.401 135.512 148.036 135.618C143.174 137.025 137.251 131.303 135.847 126.444C134.44 121.582 137.242 116.501 142.101 115.097C144.45 114.419 146.851 114.72 148.865 115.766H200.573Z" fill="#FFCEBF"/>
<path d="M200.571 112.019V131.8C200.571 143.88 192.289 154.022 181.094 156.862C179.053 157.379 176.919 157.653 174.719 157.653C160.441 157.653 151.401 146.08 151.401 131.8L148.866 112.976C148.866 111.55 150.217 110.514 151.591 110.89C153.856 111.508 157.38 112.222 161.614 112.235C168.682 112.254 177.724 110.314 186.14 102.687C186.894 102.002 188.074 102.173 188.609 103.039C190.037 105.346 193.175 109.142 198.664 109.875C199.751 110.021 200.571 110.924 200.571 112.019Z" fill="#FFDFCF"/>
<path d="M181.094 156.862C179.054 157.379 176.92 157.653 174.719 157.653C160.442 157.653 148.866 146.08 148.866 131.8V112.976C148.866 111.55 150.217 110.514 151.592 110.89C153.856 111.508 157.381 112.222 161.614 112.235V131.8C161.614 143.88 169.897 154.024 181.094 156.862Z" fill="#FFCEBF"/>
<path d="M164.769 125.046C163.719 125.046 162.868 124.195 162.868 123.145V119.791C162.868 118.741 163.719 117.89 164.769 117.89C165.819 117.89 166.67 118.741 166.67 119.791V123.145C166.67 124.195 165.819 125.046 164.769 125.046Z" fill="#465A61"/>
<path d="M184.67 125.046C183.62 125.046 182.769 124.195 182.769 123.145V119.791C182.769 118.741 183.62 117.89 184.67 117.89C185.72 117.89 186.571 118.741 186.571 119.791V123.145C186.571 124.195 185.72 125.046 184.67 125.046Z" fill="#465A61"/>
<path d="M146.331 130.642C145.281 130.642 144.43 129.791 144.43 128.741C144.43 126.743 143.085 124.988 141.159 124.472C140.144 124.2 139.543 123.157 139.814 122.143C140.086 121.128 141.129 120.528 142.143 120.798C145.729 121.759 148.233 125.025 148.233 128.741C148.233 129.791 147.382 130.642 146.331 130.642Z" fill="#FFB09E"/>
<path d="M203.107 130.642C202.057 130.642 201.206 129.791 201.206 128.741C201.206 125.025 203.71 121.759 207.296 120.798C208.311 120.527 209.353 121.128 209.625 122.143C209.896 123.157 209.294 124.2 208.28 124.471C206.354 124.987 205.009 126.743 205.009 128.741C205.009 129.791 204.157 130.642 203.107 130.642Z" fill="#FFB09E"/>
<path d="M174.72 141.583C171.804 141.583 168.888 140.473 166.668 138.253C165.925 137.51 165.925 136.306 166.668 135.564C167.41 134.821 168.614 134.821 169.357 135.564C172.314 138.521 177.125 138.521 180.082 135.564C180.825 134.821 182.029 134.821 182.772 135.564C183.514 136.306 183.514 137.51 182.772 138.253C180.551 140.473 177.636 141.583 174.72 141.583Z" fill="#FE646F"/>
<path d="M173.293 153.992V166.474C169.95 168.693 167.264 171.823 165.594 175.513C162.943 173.073 161.276 169.58 161.251 165.696C163.439 164.452 165.868 163.586 168.45 163.181V153.992H173.293Z" fill="#FFCEBF"/>
<path d="M230.118 164.193L213.956 167.97L197.794 164.193C195.009 163.542 192.343 165.657 192.343 168.517V193.558C192.343 196.011 194.331 197.999 196.784 197.999H231.129C233.581 197.999 235.569 196.011 235.569 193.558V168.517C235.569 165.657 232.904 163.543 230.118 164.193Z" fill="#FD8087"/>
<path d="M203.369 198H196.785C194.331 198 192.343 196.012 192.343 193.558V168.518C192.343 165.658 195.008 163.544 197.794 164.195L200.803 164.898C199.68 165.691 198.93 166.999 198.93 168.518V193.558C198.93 196.012 200.917 198 203.369 198Z" fill="#FE646F"/>
<path d="M220.401 178.155C219.538 178.155 218.756 177.563 218.551 176.686C218.312 175.663 218.948 174.641 219.97 174.402L229.686 172.132C230.708 171.893 231.731 172.528 231.97 173.551C232.209 174.573 231.574 175.596 230.551 175.835L220.836 178.105C220.69 178.139 220.544 178.155 220.401 178.155Z" fill="#596C76"/>
<path d="M214.057 185.376H210.179C206.673 185.376 203.832 188.217 203.832 191.723V197.998H220.403V191.723C220.403 188.217 217.562 185.376 214.057 185.376Z" fill="#FFDFCF"/>
<path d="M215.107 185.467C212.113 185.974 209.832 188.583 209.832 191.722V197.999H203.813V191.722C203.813 188.218 206.655 185.376 210.159 185.376H214.037C214.403 185.376 214.76 185.406 215.107 185.467Z" fill="#FFCEBF"/>
<path d="M142.87 185.204C142.246 185.204 141.635 184.897 141.271 184.334L116.736 146.355C116.166 145.473 116.419 144.296 117.301 143.726C118.183 143.156 119.36 143.409 119.93 144.291L144.466 182.27C145.035 183.152 144.782 184.329 143.9 184.899C143.581 185.105 143.224 185.204 142.87 185.204Z" fill="#2ED1E2"/>
<path d="M147.77 182.77H145.432C141.873 182.77 138.987 185.655 138.987 189.215V191.553C138.987 195.113 141.873 197.999 145.432 197.999H147.77C151.33 197.999 154.216 195.113 154.216 191.553V189.215C154.216 185.655 151.33 182.77 147.77 182.77Z" fill="#FFDFCF"/>
<path d="M149.394 197.792C148.877 197.927 148.332 197.998 147.771 197.998H145.434C141.874 197.998 138.987 195.113 138.987 191.553V189.213C138.987 185.654 141.874 182.769 145.434 182.769H147.771C148.332 182.769 148.877 182.84 149.394 182.974C146.62 183.694 144.572 186.214 144.572 189.213V191.553C144.572 194.552 146.62 197.072 149.394 197.792Z" fill="#FFCEBF"/>
</g>
<path d="M4.53098 72.7252C7.03336 72.7252 9.06195 70.6966 9.06195 68.1942C9.06195 65.6919 7.03336 63.6633 4.53098 63.6633C2.02859 63.6633 0 65.6919 0 68.1942C0 70.6966 2.02859 72.7252 4.53098 72.7252Z" fill="#ED1C24"/>
<path d="M229.211 29.8053C226.832 30.5801 225.531 33.1371 226.306 35.5165C227.08 37.8959 229.637 39.1967 232.017 38.4219C234.396 37.6471 235.697 35.0901 234.922 32.7107C234.147 30.3312 231.59 29.0305 229.211 29.8053Z" fill="#ED1C24"/>
<path d="M365.211 86.8053C362.832 87.5801 361.531 90.1371 362.306 92.5165C363.08 94.8959 365.637 96.1967 368.017 95.4219C370.396 94.6471 371.697 92.0901 370.922 89.7107C370.147 87.3312 367.59 86.0305 365.211 86.8053Z" fill="#ED1C24"/>
<path d="M65.6992 59.1323H70.2302V65.9287H65.6992V59.1323Z" fill="#FF1D25"/>
<path d="M172.413 51.4625L168.104 52.8654L166 46.4029L170.308 45L172.413 51.4625Z" fill="#FF1D25"/>
<path d="M311.257 118.669L306.949 120.072L304.845 113.61L309.153 112.207L311.257 118.669Z" fill="#FF1D25"/>
<path d="M35 34.5303L39.5304 29.9999L42.7344 33.2039L38.204 37.7343L35 34.5303Z" fill="#06AAE9"/>
<path d="M205.281 53.5778L202.376 59.2883L198.337 57.2338L201.242 51.5233L205.281 53.5778Z" fill="#06AAE9"/>
<path d="M341.281 110.578L338.376 116.288L334.337 114.234L337.242 108.523L341.281 110.578Z" fill="#06AAE9"/>
<path d="M5 98.5303L9.53041 93.9999L12.7344 97.2039L8.20396 101.734L5 98.5303Z" fill="#7AC943"/>
<path d="M215.548 19.2624L212.643 24.9729L208.605 22.9184L211.51 17.2079L215.548 19.2624Z" fill="#7AC943"/>
<path d="M351.548 76.2624L348.643 81.9729L344.605 79.9184L347.51 74.2079L351.548 76.2624Z" fill="#7AC943"/>
<path d="M54 90.2039L57.204 86.9999L61.7344 91.5303L58.5304 94.7343L54 90.2039Z" fill="#7AC943"/>
<path d="M137.757 36.4568L135.703 40.4954L129.992 37.5903L132.046 33.5518L137.757 36.4568Z" fill="#7AC943"/>
<path d="M273.757 93.4568L271.703 97.4954L265.992 94.5903L268.046 90.5518L273.757 93.4568Z" fill="#7AC943"/>
<path d="M54.3716 113.504H58.9026V120.3H54.3716V113.504Z" fill="#FF1D25"/>
<path d="M169.193 6.46246L164.885 7.86538L162.781 1.4029L167.089 -9.31793e-06L169.193 6.46246Z" fill="#FF1D25"/>
<path d="M305.193 63.4625L300.885 64.8654L298.781 58.4029L303.089 57L305.193 63.4625Z" fill="#FF1D25"/>
<defs>
<clipPath id="clip0_517_1845">
<rect width="126" height="126" fill="white" transform="translate(113 71.9999)"/>
</clipPath>
</defs>
</svg>
